<?xml version="1.0" encoding="UTF-8" standalone="no"?><!DOCTYPE svg PUBLIC "-//W3C//DTD SVG 1.1//EN" "http://www.w3.org/Graphics/SVG/1.1/DTD/svg11.dtd"><svg width="100%" height="100%" viewBox="0 0 106 52" version="1.1" xmlns="http://www.w3.org/2000/svg" xmlns:xlink="http://www.w3.org/1999/xlink" xml:space="preserve" xmlns:serif="http://www.serif.com/" style="fill-rule:evenodd;clip-rule:evenodd;stroke-miterlimit:10;"><g id="Artboard1" transform="matrix(0.392381,0,0,0.40791,0,0)"><rect x="0" y="0" width="268.26" height="126.67" style="fill:none;"/><g transform="matrix(2.548546,0,0,2.451519,27.473331,190.36047)"><g transform="matrix(0.372432,0,0,0.372432,-5.715996,-46.220616)"><g transform="matrix(34.1,0,0,34.1,0,0)"><path d="M0.254,0.01C0.215,0.01 0.182,0.006 0.155,-0.002C0.128,-0.01 0.099,-0.021 0.07,-0.036L0.06,-0.19L0.078,-0.19L0.135,-0.063C0.158,-0.046 0.18,-0.035 0.201,-0.03C0.222,-0.024 0.244,-0.021 0.267,-0.021C0.312,-0.021 0.345,-0.033 0.368,-0.057C0.391,-0.08 0.402,-0.113 0.402,-0.156C0.402,-0.188 0.395,-0.213 0.38,-0.231C0.364,-0.249 0.343,-0.265 0.316,-0.279C0.288,-0.293 0.255,-0.309 0.218,-0.328C0.189,-0.343 0.164,-0.357 0.144,-0.372C0.125,-0.387 0.11,-0.404 0.1,-0.423C0.09,-0.443 0.085,-0.468 0.085,-0.497C0.085,-0.526 0.094,-0.553 0.112,-0.58C0.129,-0.606 0.152,-0.627 0.18,-0.644C0.208,-0.662 0.238,-0.67 0.27,-0.67C0.299,-0.67 0.326,-0.666 0.351,-0.659C0.375,-0.652 0.4,-0.641 0.426,-0.628L0.436,-0.478L0.418,-0.478L0.374,-0.597C0.357,-0.612 0.341,-0.623 0.325,-0.63C0.309,-0.637 0.29,-0.64 0.269,-0.64C0.228,-0.64 0.197,-0.628 0.175,-0.605C0.153,-0.582 0.142,-0.553 0.142,-0.52C0.142,-0.495 0.147,-0.473 0.158,-0.456C0.168,-0.439 0.184,-0.423 0.205,-0.409C0.226,-0.395 0.253,-0.38 0.286,-0.364C0.326,-0.345 0.359,-0.326 0.385,-0.308C0.411,-0.291 0.43,-0.271 0.443,-0.248C0.455,-0.225 0.461,-0.197 0.461,-0.162C0.461,-0.129 0.451,-0.099 0.43,-0.073C0.41,-0.048 0.384,-0.028 0.353,-0.013C0.322,0.003 0.289,0.01 0.254,0.01Z" style="fill:rgb(35,31,32);fill-rule:nonzero;"/></g></g><g transform="matrix(0.372432,0,0,0.372432,1.092059,-46.220616)"><g transform="matrix(34.1,0,0,34.1,0,0)"><path d="M0.065,-0L0.065,-0.025L0.145,-0.042L0.145,-0.618L0.065,-0.635L0.065,-0.66L0.285,-0.66L0.285,-0.635L0.205,-0.618L0.205,-0.343L0.495,-0.616L0.418,-0.635L0.418,-0.66L0.616,-0.66L0.616,-0.635L0.557,-0.623L0.262,-0.356L0.601,-0.037L0.668,-0.025L0.668,-0L0.554,-0L0.205,-0.333L0.205,-0.042L0.285,-0.025L0.285,-0L0.065,-0Z" style="fill:rgb(35,31,32);fill-rule:nonzero;"/></g></g><g transform="matrix(0.372432,0,0,0.372432,8.611459,-46.220616)"><g transform="matrix(34.1,0,0,34.1,0,0)"><path d="M0.228,-0L0.228,-0.025L0.318,-0.042L0.318,-0.313L0.101,-0.618L0.035,-0.635L0.035,-0.66L0.243,-0.66L0.243,-0.635L0.176,-0.621L0.176,-0.617L0.366,-0.345L0.539,-0.617L0.539,-0.621L0.467,-0.635L0.467,-0.66L0.653,-0.66L0.653,-0.635L0.591,-0.624L0.378,-0.31L0.378,-0.042L0.468,-0.025L0.468,-0L0.228,-0Z" style="fill:rgb(35,31,32);fill-rule:nonzero;"/></g><g transform="matrix(34.1,0,0,34.1,23.54264,0)"><path d="M0.05,-0.507L0.05,-0.521C0.081,-0.535 0.103,-0.552 0.116,-0.571C0.128,-0.59 0.134,-0.609 0.134,-0.627C0.134,-0.646 0.129,-0.661 0.12,-0.671C0.111,-0.682 0.1,-0.691 0.087,-0.7L0.065,-0.714L0.065,-0.717L0.078,-0.739C0.08,-0.742 0.082,-0.745 0.085,-0.747C0.087,-0.749 0.091,-0.75 0.096,-0.75C0.101,-0.75 0.109,-0.747 0.119,-0.742C0.138,-0.732 0.151,-0.718 0.161,-0.701C0.17,-0.684 0.174,-0.665 0.174,-0.645C0.174,-0.62 0.165,-0.595 0.147,-0.57C0.129,-0.544 0.097,-0.523 0.05,-0.507Z" style="fill:rgb(35,31,32);fill-rule:nonzero;"/></g><g transform="matrix(34.1,0,0,34.1,30.92188,0)"><path d="M0.254,0.01C0.215,0.01 0.182,0.006 0.155,-0.002C0.128,-0.01 0.099,-0.021 0.07,-0.036L0.06,-0.19L0.078,-0.19L0.135,-0.063C0.158,-0.046 0.18,-0.035 0.201,-0.03C0.222,-0.024 0.244,-0.021 0.267,-0.021C0.312,-0.021 0.345,-0.033 0.368,-0.057C0.391,-0.08 0.402,-0.113 0.402,-0.156C0.402,-0.188 0.395,-0.213 0.38,-0.231C0.364,-0.249 0.343,-0.265 0.316,-0.279C0.288,-0.293 0.255,-0.309 0.218,-0.328C0.189,-0.343 0.164,-0.357 0.144,-0.372C0.125,-0.387 0.11,-0.404 0.1,-0.423C0.09,-0.443 0.085,-0.468 0.085,-0.497C0.085,-0.526 0.094,-0.553 0.112,-0.58C0.129,-0.606 0.152,-0.627 0.18,-0.644C0.208,-0.662 0.238,-0.67 0.27,-0.67C0.299,-0.67 0.326,-0.666 0.351,-0.659C0.375,-0.652 0.4,-0.641 0.426,-0.628L0.436,-0.478L0.418,-0.478L0.374,-0.597C0.357,-0.612 0.341,-0.623 0.325,-0.63C0.309,-0.637 0.29,-0.64 0.269,-0.64C0.228,-0.64 0.197,-0.628 0.175,-0.605C0.153,-0.582 0.142,-0.553 0.142,-0.52C0.142,-0.495 0.147,-0.473 0.158,-0.456C0.168,-0.439 0.184,-0.423 0.205,-0.409C0.226,-0.395 0.253,-0.38 0.286,-0.364C0.326,-0.345 0.359,-0.326 0.385,-0.308C0.411,-0.291 0.43,-0.271 0.443,-0.248C0.455,-0.225 0.461,-0.197 0.461,-0.162C0.461,-0.129 0.451,-0.099 0.43,-0.073C0.41,-0.048 0.384,-0.028 0.353,-0.013C0.322,0.003 0.289,0.01 0.254,0.01Z" style="fill:rgb(35,31,32);fill-rule:nonzero;"/></g><g transform="matrix(34.1,0,0,34.1,57.20616,0)"><path d="M0.065,-0L0.065,-0.025L0.143,-0.042L0.143,-0.618L0.065,-0.635L0.065,-0.66L0.289,-0.66L0.289,-0.635L0.203,-0.618L0.203,-0.358L0.581,-0.358L0.581,-0.618L0.495,-0.635L0.495,-0.66L0.719,-0.66L0.719,-0.635L0.641,-0.618L0.641,-0.042L0.719,-0.025L0.719,-0L0.495,-0L0.495,-0.025L0.581,-0.042L0.581,-0.323L0.203,-0.323L0.203,-0.042L0.289,-0.025L0.289,-0L0.065,-0Z" style="fill:rgb(35,31,32);fill-rule:nonzero;"/></g><g transform="matrix(34.1,0,0,34.1,84.0224,0)"><path d="M0.383,0.01C0.323,0.01 0.27,-0.005 0.223,-0.034C0.175,-0.063 0.138,-0.104 0.111,-0.155C0.084,-0.206 0.07,-0.265 0.07,-0.33C0.07,-0.395 0.084,-0.454 0.111,-0.505C0.138,-0.556 0.175,-0.597 0.223,-0.626C0.27,-0.655 0.323,-0.67 0.383,-0.67C0.444,-0.67 0.498,-0.655 0.544,-0.626C0.592,-0.597 0.629,-0.556 0.656,-0.505C0.683,-0.454 0.697,-0.395 0.697,-0.33C0.697,-0.265 0.683,-0.206 0.656,-0.155C0.629,-0.104 0.592,-0.063 0.544,-0.034C0.498,-0.005 0.444,0.01 0.383,0.01ZM0.404,-0.02C0.449,-0.02 0.49,-0.032 0.524,-0.054C0.559,-0.077 0.587,-0.11 0.606,-0.151C0.625,-0.193 0.635,-0.242 0.635,-0.299C0.635,-0.368 0.623,-0.428 0.599,-0.479C0.575,-0.53 0.543,-0.57 0.502,-0.599C0.461,-0.627 0.416,-0.641 0.366,-0.641C0.321,-0.641 0.28,-0.63 0.245,-0.607C0.21,-0.584 0.182,-0.552 0.162,-0.511C0.142,-0.469 0.132,-0.42 0.132,-0.363C0.132,-0.294 0.144,-0.234 0.169,-0.182C0.193,-0.131 0.226,-0.091 0.267,-0.062C0.308,-0.034 0.353,-0.02 0.404,-0.02Z" style="fill:rgb(35,31,32);fill-rule:nonzero;"/></g><g transform="matrix(34.1,0,0,34.1,110.25894,0)"><path d="M0.065,-0L0.065,-0.025L0.145,-0.042L0.145,-0.618L0.065,-0.635L0.065,-0.66L0.263,-0.66C0.333,-0.66 0.388,-0.646 0.428,-0.617C0.469,-0.588 0.489,-0.548 0.489,-0.497C0.489,-0.457 0.476,-0.423 0.451,-0.395C0.425,-0.367 0.391,-0.346 0.349,-0.333L0.542,-0.038L0.608,-0.025L0.608,-0L0.492,-0L0.292,-0.313L0.205,-0.313L0.205,-0.043L0.28,-0.025L0.28,-0L0.065,-0ZM0.27,-0.625L0.205,-0.625L0.205,-0.348L0.276,-0.348C0.318,-0.348 0.353,-0.361 0.381,-0.387C0.408,-0.412 0.422,-0.445 0.422,-0.484C0.422,-0.527 0.408,-0.562 0.381,-0.587C0.354,-0.612 0.317,-0.625 0.27,-0.625Z" style="fill:rgb(35,31,32);fill-rule:nonzero;"/></g><g transform="matrix(34.1,0,0,34.1,130.90308,0)"><path d="M0.07,-0L0.07,-0.025L0.148,-0.042L0.148,-0.618L0.07,-0.635L0.07,-0.66L0.286,-0.66L0.286,-0.635L0.208,-0.618L0.208,-0.042L0.286,-0.025L0.286,-0L0.07,-0Z" style="fill:rgb(35,31,32);fill-rule:nonzero;"/></g><g transform="matrix(34.1,0,0,34.1,143.12452,0)"><path d="M0.09,-0L0.09,-0.02L0.45,-0.625L0.164,-0.625L0.122,-0.488L0.102,-0.488L0.102,-0.66L0.526,-0.66L0.526,-0.64L0.165,-0.035L0.475,-0.035L0.517,-0.182L0.537,-0.182L0.537,-0L0.09,-0Z" style="fill:rgb(35,31,32);fill-rule:nonzero;"/></g><g transform="matrix(34.1,0,0,34.1,164.58706,0)"><path d="M0.383,0.01C0.323,0.01 0.27,-0.005 0.223,-0.034C0.175,-0.063 0.138,-0.104 0.111,-0.155C0.084,-0.206 0.07,-0.265 0.07,-0.33C0.07,-0.395 0.084,-0.454 0.111,-0.505C0.138,-0.556 0.175,-0.597 0.223,-0.626C0.27,-0.655 0.323,-0.67 0.383,-0.67C0.444,-0.67 0.498,-0.655 0.544,-0.626C0.592,-0.597 0.629,-0.556 0.656,-0.505C0.683,-0.454 0.697,-0.395 0.697,-0.33C0.697,-0.265 0.683,-0.206 0.656,-0.155C0.629,-0.104 0.592,-0.063 0.544,-0.034C0.498,-0.005 0.444,0.01 0.383,0.01ZM0.404,-0.02C0.449,-0.02 0.49,-0.032 0.524,-0.054C0.559,-0.077 0.587,-0.11 0.606,-0.151C0.625,-0.193 0.635,-0.242 0.635,-0.299C0.635,-0.368 0.623,-0.428 0.599,-0.479C0.575,-0.53 0.543,-0.57 0.502,-0.599C0.461,-0.627 0.416,-0.641 0.366,-0.641C0.321,-0.641 0.28,-0.63 0.245,-0.607C0.21,-0.584 0.182,-0.552 0.162,-0.511C0.142,-0.469 0.132,-0.42 0.132,-0.363C0.132,-0.294 0.144,-0.234 0.169,-0.182C0.193,-0.131 0.226,-0.091 0.267,-0.062C0.308,-0.034 0.353,-0.02 0.404,-0.02Z" style="fill:rgb(35,31,32);fill-rule:nonzero;"/></g><g transform="matrix(34.1,0,0,34.1,190.8236,0)"><path d="M0.065,-0L0.065,-0.025L0.143,-0.042L0.143,-0.618L0.065,-0.635L0.065,-0.66L0.196,-0.66L0.603,-0.108L0.603,-0.618L0.517,-0.635L0.517,-0.66L0.719,-0.66L0.719,-0.635L0.641,-0.618L0.641,0.005L0.619,0.005L0.183,-0.576L0.183,-0.045L0.274,-0.025L0.274,-0L0.065,-0Z" style="fill:rgb(35,31,32);fill-rule:nonzero;"/></g></g></g><g transform="matrix(0.94916,0,0,0.913024,10.319545,8.60495)"><path d="M101.31,23.27L101.31,24.95L100.77,26.21L99.32,26.21L98.67,27.91L97.45,27.88L93.31,40.01L92.68,39.98L92.68,41.95L92.39,42.11L89.42,41.87L89.55,39.64L88.87,39.64L85.85,36.97L90.66,37.08L92.62,38.82L92.97,38.06L90.96,36.31L89.53,36.27L90.31,28.43L88.76,26.42L75.72,26.42L74.24,24.95L75.22,23.58L75.79,23.34L89.35,23.23L90.34,21.43L91.61,21.41C91.76,21.86 92.02,22.69 92.12,22.99L95.91,22.99L96.27,22.24L92.67,22.24L92.21,20.81L92.47,13.28L92.77,12.78L94.7,12.75L96.04,20.42L97.04,20.42L97.39,21.5L99.92,21.63L100.36,21.63L100.87,21.75L101.31,23.27Z" style="fill:rgb(35,31,32);fill-rule:nonzero;"/></g><g transform="matrix(0.94916,0,0,0.913024,10.319545,8.60495)"><path d="M97.7,17.68L100.06,13.69L99.73,9.05L103.17,8.78L103.77,13.96L100.23,20.79L97.92,20.66L97.66,19.63L96.63,19.63L96.44,18.86L97.7,17.68Z" style="fill:rgb(35,31,32);fill-rule:nonzero;"/></g><g transform="matrix(2.548546,0,0,2.451519,0,0)"><g transform="matrix(0.372432,0,0,0.372432,4.049189,3.510048)"><path d="M102.32,36.71L109.35,18.82" style="fill:none;fill-rule:nonzero;stroke:rgb(35,31,32);stroke-width:0.93px;"/></g><g transform="matrix(0.372432,0,0,0.372432,4.049189,3.510048)"><path d="M105.86,36.44L112.36,19.09" style="fill:none;fill-rule:nonzero;stroke:rgb(35,31,32);stroke-width:0.9px;"/></g><g transform="matrix(0.372432,0,0,0.372432,4.049189,3.510048)"><path d="M109.39,36.17L115.37,19.36" style="fill:none;fill-rule:nonzero;stroke:rgb(35,31,32);stroke-width:0.87px;"/></g><g transform="matrix(0.372432,0,0,0.372432,4.049189,3.510048)"><path d="M112.93,35.9L118.38,19.63" style="fill:none;fill-rule:nonzero;stroke:rgb(35,31,32);stroke-width:0.84px;"/></g><g transform="matrix(0.372432,0,0,0.372432,4.049189,3.510048)"><path d="M116.46,35.63L121.4,19.91" style="fill:none;fill-rule:nonzero;stroke:rgb(35,31,32);stroke-width:0.81px;"/></g><g transform="matrix(0.372432,0,0,0.372432,4.049189,3.510048)"><path d="M119.99,35.35L124.41,20.18" style="fill:none;fill-rule:nonzero;stroke:rgb(35,31,32);stroke-width:0.78px;"/></g><g transform="matrix(0.372432,0,0,0.372432,4.049189,3.510048)"><path d="M123.53,35.08L127.42,20.45" style="fill:none;fill-rule:nonzero;stroke:rgb(35,31,32);stroke-width:0.75px;"/></g><g transform="matrix(0.372432,0,0,0.372432,4.049189,3.510048)"><path d="M127.06,34.81L130.43,20.72" style="fill:none;fill-rule:nonzero;stroke:rgb(35,31,32);stroke-width:0.72px;"/></g><g transform="matrix(0.372432,0,0,0.372432,4.049189,3.510048)"><path d="M130.59,34.54L133.44,20.99" style="fill:none;fill-rule:nonzero;stroke:rgb(35,31,32);stroke-width:0.69px;"/></g><g transform="matrix(0.372432,0,0,0.372432,4.049189,3.510048)"><path d="M134.13,34.27L136.45,21.26" style="fill:none;fill-rule:nonzero;stroke:rgb(35,31,32);stroke-width:0.66px;"/></g><g transform="matrix(0.372432,0,0,0.372432,4.049189,3.510048)"><path d="M137.66,34L139.46,21.53" style="fill:none;fill-rule:nonzero;stroke:rgb(35,31,32);stroke-width:0.63px;"/></g><g transform="matrix(0.372432,0,0,0.372432,4.049189,3.510048)"><path d="M141.2,33.73L142.47,21.81" style="fill:none;fill-rule:nonzero;stroke:rgb(35,31,32);stroke-width:0.6px;"/></g><g transform="matrix(0.372432,0,0,0.372432,4.049189,3.510048)"><path d="M144.73,33.45L145.48,22.08" style="fill:none;fill-rule:nonzero;stroke:rgb(35,31,32);stroke-width:0.57px;"/></g><g transform="matrix(0.372432,0,0,0.372432,4.049189,3.510048)"><path d="M148.26,33.18L148.49,22.35" style="fill:none;fill-rule:nonzero;stroke:rgb(35,31,32);stroke-width:0.54px;"/></g><g transform="matrix(0.372432,0,0,0.372432,4.049189,3.510048)"><path d="M151.8,32.91L151.5,22.62" style="fill:none;fill-rule:nonzero;stroke:rgb(35,31,32);stroke-width:0.51px;"/></g><g transform="matrix(0.372432,0,0,0.372432,4.049189,3.510048)"><path d="M155.33,32.64L154.51,22.89" style="fill:none;fill-rule:nonzero;stroke:rgb(35,31,32);stroke-width:0.48px;"/></g><g transform="matrix(0.372432,0,0,0.372432,4.049189,3.510048)"><path d="M158.87,32.37L157.52,23.16" style="fill:none;fill-rule:nonzero;stroke:rgb(35,31,32);stroke-width:0.45px;"/></g><g transform="matrix(0.372432,0,0,0.372432,4.049189,3.510048)"><path d="M162.4,32.1L160.53,23.43" style="fill:none;fill-rule:nonzero;stroke:rgb(35,31,32);stroke-width:0.42px;"/></g><g transform="matrix(0.372432,0,0,0.372432,4.049189,3.510048)"><path d="M165.93,31.83L163.54,23.71" style="fill:none;fill-rule:nonzero;stroke:rgb(35,31,32);stroke-width:0.39px;"/></g><g transform="matrix(0.372432,0,0,0.372432,4.049189,3.510048)"><path d="M169.47,31.55L166.55,23.98" style="fill:none;fill-rule:nonzero;stroke:rgb(35,31,32);stroke-width:0.36px;"/></g><g transform="matrix(0.372432,0,0,0.372432,4.049189,3.510048)"><path d="M173,31.28L169.56,24.25" style="fill:none;fill-rule:nonzero;stroke:rgb(35,31,32);stroke-width:0.33px;"/></g><g transform="matrix(0.372432,0,0,0.372432,4.049189,3.510048)"><path d="M176.54,31.01L172.57,24.52" style="fill:none;fill-rule:nonzero;stroke:rgb(35,31,32);stroke-width:0.3px;"/></g><g transform="matrix(0.372432,0,0,0.372432,4.049189,3.510048)"><path d="M180.07,30.74L175.58,24.79" style="fill:none;fill-rule:nonzero;stroke:rgb(35,31,32);stroke-width:0.27px;"/></g><g transform="matrix(0.372432,0,0,0.372432,4.049189,3.510048)"><path d="M183.6,30.47L178.59,25.06" style="fill:none;fill-rule:nonzero;stroke:rgb(35,31,32);stroke-width:0.24px;"/></g><g transform="matrix(0.372432,0,0,0.372432,4.049189,3.510048)"><path d="M187.14,30.2L181.6,25.33" style="fill:none;fill-rule:nonzero;stroke:rgb(35,31,32);stroke-width:0.21px;"/></g><g transform="matrix(0.372432,0,0,0.372432,4.049189,3.510048)"><path d="M190.67,29.93L184.61,25.61" style="fill:none;fill-rule:nonzero;stroke:rgb(35,31,32);stroke-width:0.18px;"/></g><g transform="matrix(0.372432,0,0,0.372432,4.049189,3.510048)"><path d="M194.21,29.65L187.63,25.88" style="fill:none;fill-rule:nonzero;stroke:rgb(35,31,32);stroke-width:0.15px;"/></g><g transform="matrix(0.372432,0,0,0.372432,4.049189,3.510048)"><path d="M197.74,29.38L190.64,26.15" style="fill:none;fill-rule:nonzero;stroke:rgb(35,31,32);stroke-width:0.12px;"/></g><g transform="matrix(0.372432,0,0,0.372432,4.049189,3.510048)"><path d="M201.27,29.11L193.65,26.42" style="fill:none;fill-rule:nonzero;stroke:rgb(35,31,32);stroke-width:0.09px;"/></g><g transform="matrix(0.372432,0,0,0.372432,4.049189,3.510048)"><path d="M204.81,28.84L196.66,26.69" style="fill:none;fill-rule:nonzero;stroke:rgb(35,31,32);stroke-width:0.06px;"/></g><g transform="matrix(0.372432,0,0,0.372432,4.049189,3.510048)"><path d="M208.34,28.57L199.67,26.96" style="fill:none;fill-rule:nonzero;stroke:rgb(35,31,32);stroke-width:0.03px;"/></g><g transform="matrix(0.372432,0,0,0.372432,4.049189,3.510048)"><path d="M211.88,28.3L202.68,27.24" style="fill:none;fill-rule:nonzero;"/></g></g><g id="Layer_4" transform="matrix(2.548546,0,0,2.451519,0,0)"><g transform="matrix(0.372432,0,0,0.372432,3.049189,3.510048)"><path d="M108.43,94.81C107.46,95.98 105.56,96.24 104.23,95.51C102.76,94.55 103.28,92.49 103.89,91.21C106.42,86.55 113.81,88.24 117.64,90.31L117.15,91.18C115.2,90.28 112.48,90.36 111.47,92.58C110.94,93.5 110.88,94.82 112.03,95.24C113.12,95.66 114.3,95.11 115.01,94.2C114.68,95.47 113.08,96.02 111.89,95.65C110.42,95.26 110.27,93.45 110.88,92.3C111.86,89.66 115.22,89.22 117.56,90.27L117.07,91.14C114.03,89.49 109.71,88.36 106.35,89.68C104.73,90.4 103.67,92.38 103.83,94.09C104.35,96.12 107,95.57 108.43,94.81Z" style="fill:rgb(35,31,32);fill-rule:nonzero;"/></g><g transform="matrix(0.372432,0,0,0.372432,3.049189,3.510048)"><path d="M117.61,90.3C120.78,92.2 123.37,95.36 127.29,95.43C128.21,95.46 129.15,95.49 129.91,95.07C131.56,94.13 131.03,91.52 129.55,90.64C128.77,90.1 127.74,90.3 126.96,90.73L127.56,90.35C129.26,89.53 131.02,91.12 131.26,92.81C131.64,95.33 129.35,96.14 127.27,95.99C123.28,96.1 120.32,92.95 117.1,91.15L117.62,90.3L117.61,90.3Z" style="fill:rgb(35,31,32);fill-rule:nonzero;"/></g><g transform="matrix(0.372432,0,0,0.372432,3.049189,3.510048)"><path d="M127.48,86.8C128.65,85.69 130.7,85.87 131.83,86.99C134.06,89.31 134.03,92.88 133.02,95.73C131.92,98.5 129.01,101.23 125.83,100.53C125,100.33 124.1,99.93 123.87,98.96C123.68,97.87 124.84,97.35 125.68,97.25C128.85,96.7 131.34,99.36 133.47,101.3L133.71,101.54C132.02,102.95 131.76,105.58 132.77,107.47C132.85,107.68 133.14,107.97 133.23,108.08L133.23,108.46C132.9,108.41 132.82,108.3 132.66,108.19C130.71,106.44 130.7,102.69 133.04,101.26C133.04,101.26 133,101.82 132.98,101.78C131,100 128.7,97.47 125.8,97.99C123.92,98.27 124.55,99.48 126,99.76C128.76,100.32 131.26,97.82 132.2,95.42C133.64,91.88 132.6,85.46 127.48,86.81L127.48,86.8Z" style="fill:rgb(35,31,32);fill-rule:nonzero;"/></g><g transform="matrix(0.372432,0,0,0.372432,3.049189,3.510048)"><path d="M158.02,94.81C159.45,95.57 162.1,96.12 162.62,94.09C162.78,92.37 161.73,90.4 160.1,89.68C156.74,88.36 152.43,89.49 149.38,91.14L148.89,90.27C151.23,89.22 154.59,89.66 155.57,92.3C156.18,93.45 156.03,95.26 154.56,95.65C153.37,96.02 151.77,95.47 151.44,94.2C152.14,95.11 153.33,95.65 154.42,95.24C155.58,94.82 155.51,93.51 154.98,92.58C153.97,90.36 151.25,90.28 149.3,91.18L148.81,90.31C152.64,88.24 160.04,86.55 162.56,91.21C163.16,92.49 163.69,94.55 162.22,95.51C160.89,96.24 158.99,95.98 158.02,94.81Z" style="fill:rgb(35,31,32);fill-rule:nonzero;"/></g><g transform="matrix(0.372432,0,0,0.372432,3.049189,3.510048)"><path d="M149.36,91.16C146.14,92.96 143.17,96.11 139.19,96C138.25,96 137.21,96 136.32,95.47C134.44,94.3 135.06,91.42 136.79,90.45C137.64,89.91 138.74,90.14 139.5,90.74C137.66,89.64 135.81,90.88 135.54,92.87C135.25,96.25 139.73,95.65 141.83,94.91C144.44,93.86 146.4,91.77 148.84,90.31L149.36,91.16Z" style="fill:rgb(35,31,32);fill-rule:nonzero;"/></g><g transform="matrix(0.372432,0,0,0.372432,3.049189,3.510048)"><path d="M138.97,86.8C133.85,85.45 132.81,91.86 134.25,95.41C135.19,97.81 137.69,100.31 140.45,99.75C141.89,99.48 142.54,98.27 140.65,97.98C137.75,97.46 135.44,100 133.47,101.78L133.42,101.25C135.76,102.69 135.75,106.44 133.8,108.18C133.64,108.29 133.56,108.4 133.23,108.45L133.23,108.07C133.33,107.96 133.6,107.66 133.69,107.46C134.7,105.57 134.44,102.94 132.75,101.53L132.99,101.29C135.12,99.35 137.61,96.69 140.78,97.24C141.61,97.34 142.78,97.86 142.59,98.95C142.36,99.92 141.46,100.32 140.63,100.52C137.45,101.22 134.53,98.49 133.44,95.72C132.43,92.87 132.39,89.3 134.63,86.98C135.76,85.86 137.81,85.68 138.98,86.79L138.97,86.8Z" style="fill:rgb(35,31,32);fill-rule:nonzero;"/></g><g transform="matrix(0.372432,0,0,0.372432,3.049189,3.510048)"><path d="M170.21,95.86C188.29,96.3 207.46,96.25 225.53,95.93C225.97,95.96 226.81,95.78 227.19,96.08C227.1,96.13 227.02,96.26 227.12,96.35L226.86,96.14L227.52,96.16C227.51,96.3 227.55,96.41 227.43,96.54C226.78,97.02 226.35,96.84 225.53,96.88C209.79,96.82 186.15,96.72 170.18,96.85L169.68,96.85L169.68,95.84L170.18,95.85L170.21,95.86Z" style="fill:rgb(35,31,32);fill-rule:nonzero;"/></g><g transform="matrix(0.372432,0,0,0.372432,3.049189,3.510048)"><path d="M233.62,95.12C232.89,95.06 232.52,94.53 231.9,94.34C229.94,93.69 228.7,95.42 227.29,96.46L226.88,96.05C227.83,94.69 229.29,93.27 231.1,93.4C232.1,93.44 233.34,94.08 233.62,95.12Z" style="fill:rgb(35,31,32);fill-rule:nonzero;"/></g><g transform="matrix(0.372432,0,0,0.372432,3.049189,3.510048)"><circle cx="170.1" cy="96.36" r="0.5" style="fill:none;stroke:rgb(35,31,32);stroke-width:1px;"/></g><g transform="matrix(0.372432,0,0,0.372432,3.049189,3.510048)"><circle cx="230.86" cy="96.36" r="0.48" style="fill:none;stroke:rgb(35,31,32);stroke-width:1px;"/></g><g transform="matrix(0.372432,0,0,0.372432,3.049189,3.510048)"><circle cx="222.97" cy="96.36" r="0.48" style="fill:none;stroke:rgb(35,31,32);stroke-width:1px;"/></g><g transform="matrix(0.372432,0,0,0.372432,3.049189,3.510048)"><path d="M233.62,97.61C233.34,98.65 232.1,99.28 231.1,99.33C229.29,99.46 227.83,98.04 226.88,96.68L227.29,96.27C228.33,96.93 229.04,98.09 230.25,98.4C231.11,98.63 231.97,98.51 232.69,97.99C232.95,97.82 233.21,97.65 233.62,97.62L233.62,97.61Z" style="fill:rgb(35,31,32);fill-rule:nonzero;"/></g><g transform="matrix(0.372432,0,0,0.372432,3.049189,3.510048)"><path d="M96.04,96.81C79.96,96.68 56.52,96.78 40.69,96.84C39.88,96.79 39.45,96.98 38.79,96.5C38.66,96.37 38.73,96.26 38.7,96.12L39.36,96.1L39.1,96.31C39.22,96.22 39.1,96.07 39.03,96.04C39.42,95.74 40.23,95.92 40.69,95.89C53.73,96.11 68.63,96.25 81.74,96.05C86.67,96.02 91.59,95.93 96.52,95.8L96.52,96.81L96.02,96.81L96.04,96.81Z" style="fill:rgb(35,31,32);fill-rule:nonzero;"/></g><g transform="matrix(0.372432,0,0,0.372432,3.049189,3.510048)"><path d="M32.62,95.06C32.9,94.02 34.14,93.39 35.14,93.34C36.95,93.21 38.41,94.63 39.36,95.99L38.95,96.4C37.91,95.74 37.2,94.58 35.99,94.27C35.13,94.04 34.27,94.16 33.55,94.68C33.29,94.85 33.03,95.02 32.62,95.05L32.62,95.06Z" style="fill:rgb(35,31,32);fill-rule:nonzero;"/></g><g transform="matrix(0.372432,0,0,0.372432,3.049189,3.510048)"><circle cx="96.13" cy="96.31" r="0.5" style="fill:none;stroke:rgb(35,31,32);stroke-width:1px;"/></g><g transform="matrix(0.372432,0,0,0.372432,3.049189,3.510048)"><circle cx="35.38" cy="96.31" r="0.48" style="fill:none;stroke:rgb(35,31,32);stroke-width:1px;"/></g><g transform="matrix(0.372432,0,0,0.372432,3.049189,3.510048)"><circle cx="43.27" cy="96.31" r="0.48" style="fill:none;stroke:rgb(35,31,32);stroke-width:1px;"/></g><g transform="matrix(0.372432,0,0,0.372432,3.049189,3.510048)"><path d="M32.62,97.56C33.35,97.62 33.72,98.15 34.34,98.34C36.3,98.99 37.54,97.26 38.95,96.22L39.36,96.63C38.41,97.99 36.95,99.41 35.14,99.28C34.14,99.24 32.9,98.6 32.62,97.56Z" style="fill:rgb(35,31,32);fill-rule:nonzero;"/></g></g></g></svg>