# Blender 4.5.3 LTS
# www.blender.org
o Cube
v 0.237494 -0.908282 1.512429
v 0.340769 1.083985 1.370282
v 1.408519 -1.083985 -0.099349
v 1.511795 0.908282 -0.241496
v -1.511795 -0.908282 0.241496
v -1.408519 1.083985 0.099349
v -0.340769 -1.083985 -1.370282
v -0.237494 0.908282 -1.512429
vn -0.0516 -0.9961 0.0711
vn 0.5855 -0.0879 -0.8059
vn -0.8090 -0.0000 -0.5878
vn 0.0516 0.9961 -0.0711
vn 0.8090 -0.0000 0.5878
vn -0.5855 0.0879 0.8059
vt 0.875000 0.500000
vt 0.625000 0.750000
vt 0.625000 0.500000
vt 0.375000 1.000000
vt 0.375000 0.750000
vt 0.625000 0.000000
vt 0.375000 0.250000
vt 0.375000 0.000000
vt 0.375000 0.500000
vt 0.125000 0.750000
vt 0.125000 0.500000
vt 0.625000 0.250000
vt 0.875000 0.750000
vt 0.625000 1.000000
s 0
f 5/1/1 3/2/1 1/3/1
f 3/2/2 8/4/2 4/5/2
f 7/6/3 6/7/3 8/8/3
f 2/9/4 8/10/4 6/11/4
f 1/3/5 4/5/5 2/9/5
f 5/12/6 2/9/6 6/7/6
f 5/1/1 7/13/1 3/2/1
f 3/2/2 7/14/2 8/4/2
f 7/6/3 5/12/3 6/7/3
f 2/9/4 4/5/4 8/10/4
f 1/3/5 3/2/5 4/5/5
f 5/12/6 1/3/6 2/9/6
