# Blender 4.5.3 LTS
# www.blender.org
o Cube
v -1.112589 1.342225 -1.358959
v -2.163363 0.445458 0.087306
v -0.585483 -0.445458 -2.084459
v -1.636256 -1.342225 -0.638193
v 1.636256 1.342225 0.638193
v 0.585483 0.445458 2.084459
v 2.163363 -0.445458 -0.087306
v 1.112589 -1.342225 1.358959
vn 0.5254 0.4484 -0.7231
vn 0.2636 -0.8938 -0.3627
vn 0.8090 -0.0000 0.5878
vn -0.5254 -0.4484 0.7231
vn -0.8090 -0.0000 -0.5878
vn -0.2636 0.8938 0.3627
vt 0.875000 0.500000
vt 0.625000 0.750000
vt 0.625000 0.500000
vt 0.375000 1.000000
vt 0.375000 0.750000
vt 0.625000 0.000000
vt 0.375000 0.250000
vt 0.375000 0.000000
vt 0.375000 0.500000
vt 0.125000 0.750000
vt 0.125000 0.500000
vt 0.625000 0.250000
vt 0.875000 0.750000
vt 0.625000 1.000000
s 0
f 5/1/1 3/2/1 1/3/1
f 3/2/2 8/4/2 4/5/2
f 7/6/3 6/7/3 8/8/3
f 2/9/4 8/10/4 6/11/4
f 1/3/5 4/5/5 2/9/5
f 5/12/6 2/9/6 6/7/6
f 5/1/1 7/13/1 3/2/1
f 3/2/2 7/14/2 8/4/2
f 7/6/3 5/12/3 6/7/3
f 2/9/4 4/5/4 8/10/4
f 1/3/5 3/2/5 4/5/5
f 5/12/6 1/3/6 2/9/6
