# Blender 4.5.3 LTS
# www.blender.org
o Cube
v -0.833296 1.407184 -1.386523
v -2.085664 0.140828 -0.476624
v 0.191208 -0.140828 -2.130869
v -1.061160 -1.407184 -1.220970
v 1.061160 1.407184 1.220970
v -0.191208 0.140828 2.130869
v 2.085664 -0.140828 0.476624
v 0.833296 -1.407184 1.386523
vn 0.6262 0.6332 -0.4549
vn 0.5123 -0.7740 -0.3722
vn 0.5878 -0.0000 0.8090
vn -0.6262 -0.6332 0.4549
vn -0.5878 -0.0000 -0.8090
vn -0.5123 0.7740 0.3722
vt 0.875000 0.500000
vt 0.625000 0.750000
vt 0.625000 0.500000
vt 0.375000 1.000000
vt 0.375000 0.750000
vt 0.625000 0.000000
vt 0.375000 0.250000
vt 0.375000 0.000000
vt 0.375000 0.500000
vt 0.125000 0.750000
vt 0.125000 0.500000
vt 0.625000 0.250000
vt 0.875000 0.750000
vt 0.625000 1.000000
s 0
f 5/1/1 3/2/1 1/3/1
f 3/2/2 8/4/2 4/5/2
f 7/6/3 6/7/3 8/8/3
f 2/9/4 8/10/4 6/11/4
f 1/3/5 4/5/5 2/9/5
f 5/12/6 2/9/6 6/7/6
f 5/1/1 7/13/1 3/2/1
f 3/2/2 7/14/2 8/4/2
f 7/6/3 5/12/3 6/7/3
f 2/9/4 4/5/4 8/10/4
f 1/3/5 3/2/5 4/5/5
f 5/12/6 1/3/6 2/9/6
