# Blender 4.5.3 LTS
# www.blender.org
o Cube
v -0.608598 1.406154 -1.385168
v -1.802538 -0.150771 -0.997233
v 0.872125 0.150771 -1.866284
v -0.321815 -1.406154 -1.478349
v 0.321815 1.406154 1.478349
v -0.872125 -0.150771 1.866284
v 1.802538 0.150771 0.997233
v 0.608598 -1.406154 1.385168
vn 0.5970 0.7785 -0.1940
vn 0.7404 -0.6277 -0.2406
vn 0.3090 -0.0000 0.9511
vn -0.5970 -0.7785 0.1940
vn -0.3090 -0.0000 -0.9511
vn -0.7404 0.6277 0.2406
vt 0.875000 0.500000
vt 0.625000 0.750000
vt 0.625000 0.500000
vt 0.375000 1.000000
vt 0.375000 0.750000
vt 0.625000 0.000000
vt 0.375000 0.250000
vt 0.375000 0.000000
vt 0.375000 0.500000
vt 0.125000 0.750000
vt 0.125000 0.500000
vt 0.625000 0.250000
vt 0.875000 0.750000
vt 0.625000 1.000000
s 0
f 5/1/1 3/2/1 1/3/1
f 3/2/2 8/4/2 4/5/2
f 7/6/3 6/7/3 8/8/3
f 2/9/4 8/10/4 6/11/4
f 1/3/5 4/5/5 2/9/5
f 5/12/6 2/9/6 6/7/6
f 5/1/1 7/13/1 3/2/1
f 3/2/2 7/14/2 8/4/2
f 7/6/3 5/12/3 6/7/3
f 2/9/4 4/5/4 8/10/4
f 1/3/5 3/2/5 4/5/5
f 5/12/6 1/3/6 2/9/6
