<?xml version="1.0" encoding="UTF-8"?><svg id="Isolation_Mode" xmlns="http://www.w3.org/2000/svg" width="1024" height="1024" viewBox="0 0 29.53 33.33"><path d="M27.07,14.49v1.68l-.54,1.26h-1.45l-.65,1.7-1.22-.03-4.14,12.13-.63-.03v1.97l-.29.16-2.97-.24.13-2.23h-.68l-3.02-2.67,4.81.11,1.96,1.74.35-.76-2.01-1.75-1.43-.04.78-7.84-1.55-2.01H1.48l-1.48-1.47.98-1.37.57-.24,13.56-.11.99-1.8,1.27-.02c.15.45.41,1.28.51,1.58h3.79l.36-.75h-3.6l-.46-1.43.26-7.53.3-.5,1.93-.03,1.34,7.67h1l.35,1.08,2.53.13h.44s.51.12.51.12l.44,1.52Z" style="fill:#f0f5ff; stroke-width:0px;"/><polygon points="23.46 8.9 25.82 4.91 25.49 .27 28.93 0 29.53 5.18 25.99 12.01 23.68 11.88 23.42 10.85 22.38 10.86 22.2 10.08 23.46 8.9" style="fill:#f0f5ff; stroke-width:0px;"/></svg>