<?xml version="1.0" encoding="UTF-8" standalone="no"?><!DOCTYPE svg PUBLIC "-//W3C//DTD SVG 1.1//EN" "http://www.w3.org/Graphics/SVG/1.1/DTD/svg11.dtd"><svg width="100%" height="100%" viewBox="0 0 106 52" version="1.1" xmlns="http://www.w3.org/2000/svg" xmlns:xlink="http://www.w3.org/1999/xlink" xml:space="preserve" xmlns:serif="http://www.serif.com/" style="fill-rule:evenodd;clip-rule:evenodd;stroke-miterlimit:10;"><rect id="Artboard1" x="0" y="0" width="105.26" height="51.67" style="fill:none;"/><g><text x="5.064px" y="31.429px" style="font-family:'Spectral-ExtraLight', 'Spectral', serif;font-weight:275;font-size:12.7px;fill:#231f20;">S</text><text x="11.872px" y="31.429px" style="font-family:'Spectral-ExtraLight', 'Spectral', serif;font-weight:275;font-size:12.7px;fill:#231f20;">K</text><text x="19.391px" y="31.429px" style="font-family:'Spectral-ExtraLight', 'Spectral', serif;font-weight:275;font-size:12.7px;fill:#231f20;">Y’S <tspan x="40.697px " y="31.429px ">H</tspan>ORI<tspan x="72.696px " y="31.429px ">Z</tspan>ON</text></g><path d="M41.78,12.177l0,0.626l-0.201,0.469l-0.54,0l-0.242,0.633l-0.454,-0.011l-1.542,4.518l-0.235,-0.011l0,0.734l-0.108,0.06l-1.106,-0.089l0.048,-0.831l-0.253,0l-1.125,-0.994l1.791,0.041l0.73,0.648l0.13,-0.283l-0.749,-0.652l-0.533,-0.015l0.29,-2.92l-0.577,-0.749l-4.857,0l-0.551,-0.547l0.365,-0.51l0.212,-0.089l5.05,-0.041l0.369,-0.67l0.473,-0.007c0.056,0.168 0.153,0.477 0.19,0.588l1.412,0l0.134,-0.279l-1.341,0l-0.171,-0.533l0.097,-2.804l0.112,-0.186l0.719,-0.011l0.499,2.857l0.372,0l0.13,0.402l0.942,0.048l0.164,0l0.19,0.045l0.164,0.566Z" style="fill:#231f20;fill-rule:nonzero;"/><path d="M40.436,10.095l0.879,-1.486l-0.123,-1.728l1.281,-0.101l0.223,1.929l-1.318,2.544l-0.86,-0.048l-0.097,-0.384l-0.384,0l-0.071,-0.287l0.469,-0.439Z" style="fill:#231f20;fill-rule:nonzero;"/><g><path d="M42.156,17.182l2.618,-6.663" style="fill:none;fill-rule:nonzero;stroke:#231f20;stroke-width:0.35px;"/><path d="M43.475,17.081l2.421,-6.462" style="fill:none;fill-rule:nonzero;stroke:#231f20;stroke-width:0.34px;"/><path d="M44.79,16.981l2.227,-6.261" style="fill:none;fill-rule:nonzero;stroke:#231f20;stroke-width:0.32px;"/><path d="M46.108,16.88l2.03,-6.059" style="fill:none;fill-rule:nonzero;stroke:#231f20;stroke-width:0.31px;"/><path d="M47.423,16.78l1.84,-5.855" style="fill:none;fill-rule:nonzero;stroke:#231f20;stroke-width:0.3px;"/><path d="M48.737,16.676l1.646,-5.65" style="fill:none;fill-rule:nonzero;stroke:#231f20;stroke-width:0.29px;"/><path d="M50.056,16.575l1.449,-5.449" style="fill:none;fill-rule:nonzero;stroke:#231f20;stroke-width:0.28px;"/><path d="M51.37,16.474l1.255,-5.248" style="fill:none;fill-rule:nonzero;stroke:#231f20;stroke-width:0.27px;"/><path d="M52.685,16.374l1.061,-5.046" style="fill:none;fill-rule:nonzero;stroke:#231f20;stroke-width:0.26px;"/><path d="M54.003,16.273l0.864,-4.845" style="fill:none;fill-rule:nonzero;stroke:#231f20;stroke-width:0.25px;"/><path d="M55.318,16.173l0.67,-4.644" style="fill:none;fill-rule:nonzero;stroke:#231f20;stroke-width:0.23px;"/><path d="M56.637,16.072l0.473,-4.439" style="fill:none;fill-rule:nonzero;stroke:#231f20;stroke-width:0.22px;"/><path d="M57.951,15.968l0.279,-4.235" style="fill:none;fill-rule:nonzero;stroke:#231f20;stroke-width:0.21px;"/><path d="M59.266,15.867l0.086,-4.033" style="fill:none;fill-rule:nonzero;stroke:#231f20;stroke-width:0.2px;"/><path d="M60.584,15.767l-0.112,-3.832" style="fill:none;fill-rule:nonzero;stroke:#231f20;stroke-width:0.19px;"/><path d="M61.899,15.666l-0.305,-3.631" style="fill:none;fill-rule:nonzero;stroke:#231f20;stroke-width:0.18px;"/><path d="M63.217,15.566l-0.503,-3.43" style="fill:none;fill-rule:nonzero;stroke:#231f20;stroke-width:0.17px;"/><path d="M64.532,15.465l-0.696,-3.229" style="fill:none;fill-rule:nonzero;stroke:#231f20;stroke-width:0.16px;"/><path d="M65.847,15.365l-0.89,-3.024" style="fill:none;fill-rule:nonzero;stroke:#231f20;stroke-width:0.15px;"/><path d="M67.165,15.26l-1.088,-2.819" style="fill:none;fill-rule:nonzero;stroke:#231f20;stroke-width:0.13px;"/><path d="M68.48,15.16l-1.281,-2.618" style="fill:none;fill-rule:nonzero;stroke:#231f20;stroke-width:0.12px;"/><path d="M69.798,15.059l-1.479,-2.417" style="fill:none;fill-rule:nonzero;stroke:#231f20;stroke-width:0.11px;"/><path d="M71.113,14.959l-1.672,-2.216" style="fill:none;fill-rule:nonzero;stroke:#231f20;stroke-width:0.1px;"/><path d="M72.428,14.858l-1.866,-2.015" style="fill:none;fill-rule:nonzero;stroke:#231f20;stroke-width:0.09px;"/><path d="M73.746,14.757l-2.063,-1.814" style="fill:none;fill-rule:nonzero;stroke:#231f20;stroke-width:0.08px;"/><path d="M75.061,14.657l-2.257,-1.609" style="fill:none;fill-rule:nonzero;stroke:#231f20;stroke-width:0.07px;"/><path d="M76.379,14.553l-2.451,-1.404" style="fill:none;fill-rule:nonzero;stroke:#231f20;stroke-width:0.06px;"/><path d="M77.694,14.452l-2.644,-1.203" style="fill:none;fill-rule:nonzero;stroke:#231f20;stroke-width:0.04px;"/><path d="M79.009,14.352l-2.838,-1.002" style="fill:none;fill-rule:nonzero;stroke:#231f20;stroke-width:0.03px;"/><path d="M80.327,14.251l-3.035,-0.801" style="fill:none;fill-rule:nonzero;stroke:#231f20;stroke-width:0.02px;"/><path d="M81.642,14.15l-3.229,-0.6" style="fill:none;fill-rule:nonzero;stroke:#231f20;stroke-width:0.01px;"/><path d="M82.96,14.05l-3.426,-0.395" style="fill:none;fill-rule:nonzero;"/></g><g id="Layer_4"><path d="M43.432,38.82c-0.361,0.436 -1.069,0.533 -1.564,0.261c-0.547,-0.358 -0.354,-1.125 -0.127,-1.601c0.942,-1.736 3.695,-1.106 5.121,-0.335l-0.182,0.324c-0.726,-0.335 -1.739,-0.305 -2.115,0.521c-0.197,0.343 -0.22,0.834 0.209,0.991c0.406,0.156 0.845,-0.048 1.11,-0.387c-0.123,0.473 -0.719,0.678 -1.162,0.54c-0.547,-0.145 -0.603,-0.819 -0.376,-1.248c0.365,-0.983 1.616,-1.147 2.488,-0.756l-0.182,0.324c-1.132,-0.615 -2.741,-1.035 -3.992,-0.544c-0.603,0.268 -0.998,1.006 -0.939,1.642c0.194,0.756 1.181,0.551 1.713,0.268Z" style="fill:#231f20;fill-rule:nonzero;"/><path d="M46.851,37.141c1.181,0.708 2.145,1.885 3.605,1.911c0.343,0.011 0.693,0.022 0.976,-0.134c0.615,-0.35 0.417,-1.322 -0.134,-1.65c-0.29,-0.201 -0.674,-0.127 -0.965,0.034l0.223,-0.142c0.633,-0.305 1.289,0.287 1.378,0.916c0.142,0.939 -0.711,1.24 -1.486,1.184c-1.486,0.041 -2.588,-1.132 -3.788,-1.803l0.194,-0.317l-0.004,0Z" style="fill:#231f20;fill-rule:nonzero;"/><path d="M50.527,35.837c0.436,-0.413 1.199,-0.346 1.62,0.071c0.831,0.864 0.819,2.194 0.443,3.255c-0.41,1.032 -1.493,2.048 -2.678,1.788c-0.309,-0.074 -0.644,-0.223 -0.73,-0.585c-0.071,-0.406 0.361,-0.6 0.674,-0.637c1.181,-0.205 2.108,0.786 2.901,1.508l0.089,0.089c-0.629,0.525 -0.726,1.505 -0.35,2.209c0.03,0.078 0.138,0.186 0.171,0.227l0,0.142c-0.123,-0.019 -0.153,-0.06 -0.212,-0.101c-0.726,-0.652 -0.73,-2.048 0.142,-2.581c0,0 -0.015,0.209 -0.022,0.194c-0.737,-0.663 -1.594,-1.605 -2.674,-1.412c-0.7,0.104 -0.466,0.555 0.074,0.659c1.028,0.209 1.959,-0.723 2.309,-1.616c0.536,-1.318 0.149,-3.709 -1.758,-3.207l-0,-0.004Z" style="fill:#231f20;fill-rule:nonzero;"/><path d="M61.901,38.82c0.533,0.283 1.52,0.488 1.713,-0.268c0.06,-0.641 -0.331,-1.374 -0.939,-1.642c-1.251,-0.492 -2.857,-0.071 -3.992,0.544l-0.182,-0.324c0.871,-0.391 2.123,-0.227 2.488,0.756c0.227,0.428 0.171,1.102 -0.376,1.248c-0.443,0.138 -1.039,-0.067 -1.162,-0.54c0.261,0.339 0.704,0.54 1.11,0.387c0.432,-0.156 0.406,-0.644 0.209,-0.991c-0.376,-0.827 -1.389,-0.857 -2.115,-0.521l-0.182,-0.324c1.426,-0.771 4.182,-1.4 5.121,0.335c0.223,0.477 0.421,1.244 -0.127,1.601c-0.495,0.272 -1.203,0.175 -1.564,-0.261Z" style="fill:#231f20;fill-rule:nonzero;"/><path d="M58.676,37.461c-1.199,0.67 -2.305,1.844 -3.788,1.803c-0.35,0 -0.737,0 -1.069,-0.197c-0.7,-0.436 -0.469,-1.508 0.175,-1.87c0.317,-0.201 0.726,-0.115 1.009,0.108c-0.685,-0.41 -1.374,0.052 -1.475,0.793c-0.108,1.259 1.56,1.035 2.343,0.76c0.972,-0.391 1.702,-1.169 2.611,-1.713l0.194,0.317Z" style="fill:#231f20;fill-rule:nonzero;"/><path d="M54.806,35.837c-1.907,-0.503 -2.294,1.885 -1.758,3.207c0.35,0.894 1.281,1.825 2.309,1.616c0.536,-0.101 0.778,-0.551 0.074,-0.659c-1.08,-0.194 -1.94,0.752 -2.674,1.415l-0.019,-0.197c0.871,0.536 0.868,1.933 0.142,2.581c-0.06,0.041 -0.089,0.082 -0.212,0.101l0,-0.142c0.037,-0.041 0.138,-0.153 0.171,-0.227c0.376,-0.704 0.279,-1.683 -0.35,-2.209l0.089,-0.089c0.793,-0.723 1.721,-1.713 2.901,-1.508c0.309,0.037 0.745,0.231 0.674,0.637c-0.086,0.361 -0.421,0.51 -0.73,0.585c-1.184,0.261 -2.272,-0.756 -2.678,-1.788c-0.376,-1.061 -0.391,-2.391 0.443,-3.255c0.421,-0.417 1.184,-0.484 1.62,-0.071l-0.004,0.004Z" style="fill:#231f20;fill-rule:nonzero;"/><path d="M66.441,39.211c6.734,0.164 13.873,0.145 20.603,0.026c0.164,0.011 0.477,-0.056 0.618,0.056c-0.034,0.019 -0.063,0.067 -0.026,0.101l-0.097,-0.078l0.246,0.007c-0.004,0.052 0.011,0.093 -0.034,0.142c-0.242,0.179 -0.402,0.112 -0.708,0.127c-5.862,-0.022 -14.666,-0.06 -20.614,-0.011l-0.186,0l0,-0.376l0.186,0.004l0.011,0.004Z" style="fill:#231f20;fill-rule:nonzero;"/><path d="M90.057,38.936c-0.272,-0.022 -0.41,-0.22 -0.641,-0.29c-0.73,-0.242 -1.192,0.402 -1.717,0.79l-0.153,-0.153c0.354,-0.507 0.898,-1.035 1.572,-0.987c0.372,0.015 0.834,0.253 0.939,0.641Z" style="fill:#231f20;fill-rule:nonzero;"/><circle cx="66.4" cy="39.398" r="0.186" style="fill:none;stroke:#231f20;stroke-width:0.37px;"/><circle cx="89.029" cy="39.398" r="0.179" style="fill:none;stroke:#231f20;stroke-width:0.37px;"/><circle cx="86.09" cy="39.398" r="0.179" style="fill:none;stroke:#231f20;stroke-width:0.37px;"/><path d="M90.057,39.863c-0.104,0.387 -0.566,0.622 -0.939,0.641c-0.674,0.048 -1.218,-0.48 -1.572,-0.987l0.153,-0.153c0.387,0.246 0.652,0.678 1.102,0.793c0.32,0.086 0.641,0.041 0.909,-0.153c0.097,-0.063 0.194,-0.127 0.346,-0.138l0,-0.004Z" style="fill:#231f20;fill-rule:nonzero;"/><path d="M38.818,39.565c-5.989,-0.048 -14.719,-0.011 -20.614,0.011c-0.302,-0.019 -0.462,0.052 -0.708,-0.127c-0.048,-0.048 -0.022,-0.089 -0.034,-0.142l0.246,-0.007l-0.097,0.078c0.045,-0.034 0,-0.089 -0.026,-0.101c0.145,-0.112 0.447,-0.045 0.618,-0.056c4.857,0.082 10.406,0.134 15.288,0.06c1.836,-0.011 3.668,-0.045 5.505,-0.093l0,0.376l-0.186,0l0.007,0Z" style="fill:#231f20;fill-rule:nonzero;"/><path d="M15.198,38.913c0.104,-0.387 0.566,-0.622 0.939,-0.641c0.674,-0.048 1.218,0.48 1.572,0.987l-0.153,0.153c-0.387,-0.246 -0.652,-0.678 -1.102,-0.793c-0.32,-0.086 -0.641,-0.041 -0.909,0.153c-0.097,0.063 -0.194,0.127 -0.346,0.138l-0,0.004Z" style="fill:#231f20;fill-rule:nonzero;"/><circle cx="38.851" cy="39.379" r="0.186" style="fill:none;stroke:#231f20;stroke-width:0.37px;"/><circle cx="16.226" cy="39.379" r="0.179" style="fill:none;stroke:#231f20;stroke-width:0.37px;"/><circle cx="19.164" cy="39.379" r="0.179" style="fill:none;stroke:#231f20;stroke-width:0.37px;"/><path d="M15.198,39.845c0.272,0.022 0.41,0.22 0.641,0.29c0.73,0.242 1.192,-0.402 1.717,-0.79l0.153,0.153c-0.354,0.507 -0.898,1.035 -1.572,0.987c-0.372,-0.015 -0.834,-0.253 -0.939,-0.641Z" style="fill:#231f20;fill-rule:nonzero;"/></g></svg>